<svg xmlns="http://www.w3.org/2000/svg" viewBox="-77 -1962 151 151"><defs><style>.cls-4{fill:#ff7600}</style><clipPath id="clip-path"><path id="Path_568" data-name="Path 568" d="M0-83.624h151v151H0z" transform="translate(0 83.624)" fill="none"/></clipPath></defs><g id="Group_932" data-name="Group 932" transform="translate(-520 -2011)"><g id="Group_703" data-name="Group 703" transform="translate(443 49)"><g id="Group_702" data-name="Group 702" clip-path="url(#clip-path)"><g id="Group_690" data-name="Group 690" transform="translate(4.513 4.514)"><path id="Path_556" data-name="Path 556" d="M31.674 0a70.986 70.986 0 1 1-70.987 70.986A70.986 70.986 0 0 1 31.674 0" transform="translate(39.313)" fill="#fff"/></g><g id="Group_691" data-name="Group 691" transform="translate(-.001)"><path id="Path_557" data-name="Path 557" class="cls-4" d="M33.688 4.029A66.472 66.472 0 1 0 100.16 70.5 66.548 66.548 0 0 0 33.688 4.029m0 141.971a75.5 75.5 0 1 1 75.5-75.5 75.585 75.585 0 0 1-75.5 75.5" transform="translate(41.813 5)"/></g><g id="Group_692" data-name="Group 692" transform="translate(23.154 47.119)"><path id="Path_558" data-name="Path 558" class="cls-4" d="M9.049 0A1.2 1.2 0 0 1 10.4 1.367v5.1a1.222 1.222 0 0 1-1.351 1.37H-1.859A1.22 1.22 0 0 0-3.211 9.2v1.459a1.239 1.239 0 0 0 1.352 1.371h6.985a1.2 1.2 0 0 1 1.352 1.37v5.1a1.222 1.222 0 0 1-1.352 1.37h-6.985a1.219 1.219 0 0 0-1.352 1.365v1.459a1.239 1.239 0 0 0 1.352 1.367H9.049A1.205 1.205 0 0 1 10.4 25.43v5.1a1.2 1.2 0 0 1-1.351 1.37H-9.88a1.24 1.24 0 0 1-1.352-1.367V1.371A1.22 1.22 0 0 1-9.88 0H9.049z" transform="translate(11.232)"/></g><g id="Group_693" data-name="Group 693" transform="translate(47.988 47.119)"><path id="Path_559" data-name="Path 559" class="cls-4" d="M2.855 0a1.2 1.2 0 0 1 1.35 1.367v17.864c0 3.508.228 5.65 3.563 5.65s3.561-2.142 3.561-5.65V1.367A1.22 1.22 0 0 1 12.681 0h5.047a1.2 1.2 0 0 1 1.354 1.367v20.276c0 3.008-.632 11.073-11.313 11.073S-3.543 24.651-3.543 21.643V1.367A1.22 1.22 0 0 1-2.191 0z" transform="translate(3.543)"/></g><g id="Group_694" data-name="Group 694" transform="translate(74.846 47.119)"><path id="Path_560" data-name="Path 560" class="cls-4" d="M4.121 3.5a1.355 1.355 0 0 0-1.4 1.412V8.28a1.357 1.357 0 0 0 1.4 1.42h2.3c2.163 0 3.245-.274 3.245-3.1S8.584 3.5 6.421 3.5h-2.3zm14.512 21.6a1.613 1.613 0 0 1-1.484 2.461h-5.141a1.094 1.094 0 0 1-1.035-.637l-4.689-9.16a.462.462 0 0 0-.358-.228h-1.8a1.357 1.357 0 0 0-1.4 1.416v7.2a1.357 1.357 0 0 1-1.4 1.41h-5.043a1.356 1.356 0 0 1-1.4-1.41v-29.08a1.357 1.357 0 0 1 1.4-1.412h9.87C14.171-4.34 17.42-.878 17.42 6.6c0 4.24-1.036 7.2-3.425 8.933a.487.487 0 0 0-.135.59z" transform="translate(5.115 4.34)"/></g><g id="Group_695" data-name="Group 695" transform="translate(101.113 46.299)"><path id="Path_561" data-name="Path 561" class="cls-4" d="M6.637 6.019C6.637 2.51 6.415.367 3.08.367S-.484 2.51-.484 6.019v6.564c0 3.507.228 5.65 3.564 5.65s3.557-2.143 3.557-5.65zM14.391 15c0 3.008-.632 11.073-11.311 11.073S-8.238 18-8.238 15V3.6C-8.238.592-7.6-7.47 3.08-7.47S14.391.592 14.391 3.6z" transform="translate(8.238 7.47)"/></g><g id="Group_696" data-name="Group 696" transform="translate(23.398 82.231)"><path id="Path_562" data-name="Path 562" class="cls-4" d="M4.953 3.44c-.585.116-.876-.146-.964-.728A2.373 2.373 0 0 0 1.449.755c-1.14 0-1.84.672-1.725 1.345.41 2.281 9.637 2.219 9.637 8.936 0 .876-.991 6.047-7.912 6.047-6.132 0-7.448-4.03-7.595-6.307a.858.858 0 0 1 .758-.966l3.3-.73c.583-.114.9.146.964.76a2.4 2.4 0 0 0 2.569 2.219c1.43 0 2.483-.847 2.308-1.636C3.2 7.938-5.59 8.495-5.59 1.777-5.619.9-5.093-4.27 1.449-4.27c6.017 0 7.418 3.915 7.593 6.018a.86.86 0 0 1-.758.964z" transform="translate(6.148 4.27)"/></g><g id="Group_697" data-name="Group 697" transform="translate(41.015 82.7)"><path id="Path_563" data-name="Path 563" class="cls-4" d="M3.336 4.013c1.4 0 2.1-.177 2.1-1.988S4.737.041 3.336.041H1.759a.784.784 0 0 0-.876.874v2.221a.8.8 0 0 0 .876.874h1.577zM3.16-4.981c5.2 0 7.3 2.219 7.3 7.008s-2.1 7.01-7.3 7.01h-1.4a.785.785 0 0 0-.876.878v4.671a.776.776 0 0 1-.876.878h-3.27a.8.8 0 0 1-.878-.878V-4.075a.808.808 0 0 1 .878-.906z" transform="translate(4.14 4.981)"/></g><g id="Group_698" data-name="Group 698" transform="translate(57.284 82.174)"><path id="Path_564" data-name="Path 564" class="cls-4" d="M4.144 3.388c0-1.4-.2-2.1-2.133-2.1s-2.133.7-2.133 2.1v3.185a.8.8 0 0 0 .876.876h2.512a.81.81 0 0 0 .876-.906V3.388zm5.023 12.383c0 .641-.293.993-.876.993H5.019a.786.786 0 0 1-.876-.876v-2.54a.775.775 0 0 0-.876-.876H.756a.786.786 0 0 0-.876.876v2.541a.775.775 0 0 1-.88.876h-3.267c-.554 0-.876-.35-.876-.993V3.388c0-3.68.583-7.593 7.154-7.593S9.167-.292 9.167 3.388z" transform="translate(5.143 4.205)"/></g><g id="Group_699" data-name="Group 699" transform="translate(74.371 82.699)"><path id="Path_565" data-name="Path 565" class="cls-4" d="M2.671 2.241a.875.875 0 0 0-.906.9v2.167a.875.875 0 0 0 .906.9h1.49c1.4 0 2.1-.175 2.1-1.986s-.7-1.986-2.1-1.986h-1.49zm9.4 13.844a1.033 1.033 0 0 1-.964 1.576H7.781a.714.714 0 0 1-.672-.41l-3.037-5.87a.3.3 0 0 0-.235-.148H2.671a.876.876 0 0 0-.906.906v4.617a.874.874 0 0 1-.9.9H-2.41a.874.874 0 0 1-.9-.9V-1.876a.875.875 0 0 1 .9-.906h6.4c5.2 0 7.3 2.219 7.3 7.01 0 2.716-.672 4.615-2.219 5.724a.313.313 0 0 0-.088.379z" transform="translate(3.315 2.782)"/></g><g id="Group_700" data-name="Group 700" transform="translate(91.692 82.699)"><path id="Path_566" data-name="Path 566" class="cls-4" d="M5.864 0a.773.773 0 0 1 .874.876v3.272a.784.784 0 0 1-.874.876H-1.2a.785.785 0 0 0-.876.876v.935a.8.8 0 0 0 .876.878h4.523a.771.771 0 0 1 .874.874v3.272a.783.783 0 0 1-.874.874H-1.2a.785.785 0 0 0-.876.876v.935a.8.8 0 0 0 .876.876h7.064a.773.773 0 0 1 .874.876v3.272a.773.773 0 0 1-.874.876H-6.4a.8.8 0 0 1-.876-.876V.876A.786.786 0 0 1-6.4 0z" transform="translate(7.278)"/></g><g id="Group_701" data-name="Group 701" transform="translate(107.957 82.699)"><path id="Path_567" data-name="Path 567" class="cls-4" d="M2.307 0a1 1 0 0 1 1.019.672L7.3 10.4c.116.264.35.2.35-.088V.876A.785.785 0 0 1 8.523 0H11.8a.773.773 0 0 1 .874.876v18.692a.784.784 0 0 1-.874.876H7.5a1.007 1.007 0 0 1-1.022-.672L2.51 10.047c-.117-.264-.35-.2-.35.087v9.435a.785.785 0 0 1-.876.876h-3.272a.8.8 0 0 1-.876-.876V.876A.786.786 0 0 1-1.988 0z" transform="translate(2.864)"/></g></g></g></g></svg>