<?xml version="1.0" encoding="utf-8"?>
<!-- Generator: Adobe Illustrator 24.0.1, SVG Export Plug-In . SVG Version: 6.00 Build 0)  -->
<svg version="1.1" id="Layer_1" xmlns="http://www.w3.org/2000/svg" xmlns:xlink="http://www.w3.org/1999/xlink" x="0px" y="0px"
	 viewBox="0 0 96 95.6" style="enable-background:new 0 0 96 95.6;" xml:space="preserve">
<g>
	<g>
		<path d="M70,29c0-12.1-9.9-22-22-22s-22,9.9-22,22s9.9,22,22,22S70,41.1,70,29z"/>
		<path d="M56.7,55.6C53.9,56.5,51,57,48,57s-5.9-0.5-8.7-1.4c-8.8-2.9-18.6-0.5-24.4,6.6C10.6,67.5,8,74.3,8,81.6
			c0,4.1,3.3,7.4,7.4,7.4h65.2c4.1,0,7.4-3.3,7.4-7.4c0-7.3-2.6-14.1-6.9-19.4C75.2,55.1,65.5,52.7,56.7,55.6z"/>
	</g>
</g>
</svg>
