<?xml version="1.0" encoding="utf-8"?>
<!-- Generator: Adobe Illustrator 23.0.6, SVG Export Plug-In . SVG Version: 6.00 Build 0)  -->
<svg version="1.1" id="Group_23612" xmlns="http://www.w3.org/2000/svg" xmlns:xlink="http://www.w3.org/1999/xlink" x="0px"
	 y="0px" viewBox="0 0 22.5 22.7" style="enable-background:new 0 0 22.5 22.7;" xml:space="preserve">
<style type="text/css">
	.st0{clip-path:url(#SVGID_2_);}
	.st1{fill:#362112;}
</style>
<g id="Group_23600" transform="translate(0)">
	<g>
		<g>
			<defs>
				<rect id="SVGID_1_" width="22.5" height="22.7"/>
			</defs>
			<clipPath id="SVGID_2_">
				<use xlink:href="#SVGID_1_"  style="overflow:visible;"/>
			</clipPath>
			<g id="Group_23599" class="st0">
				<path id="Path_22954" class="st1" d="M8.1,0c4.5,0,8.1,3.6,8.1,8.1c0,1.8-0.5,3.5-1.6,4.9l7.5,7.5c0.5,0.5,0.5,1.3,0,1.8l0,0
					c-0.2,0.2-0.5,0.4-0.9,0.4c-0.3,0-0.7-0.1-0.9-0.4l-7.5-7.5c-1.3,1-3,1.5-4.6,1.4c-4.5,0-8.1-3.6-8.1-8.1C0.1,3.6,3.7,0,8.1,0z
					 M8.1,13.9c3.2,0,5.8-2.6,5.8-5.8s-2.6-5.8-5.8-5.8S2.3,4.8,2.3,8.1l0,0C2.3,11.3,4.9,13.9,8.1,13.9z"/>
			</g>
		</g>
	</g>
</g>
<path id="Path_22955" class="st1" d="M6.5,4C7,3.8,7.7,4,7.9,4.6l0,0c0.3,0.6,0,1.2-0.6,1.5c0,0.1-1.3,0.7-1.2,1.8
	c0.1,0.6-0.3,1.2-0.9,1.3c-0.1,0-0.1,0-0.2,0c-0.6,0-1-0.4-1.1-1C3.7,6.4,4.8,4.7,6.5,4L6.5,4z"/>
</svg>
